<?xml version="1.0" encoding="UTF-8" standalone="no"?>
<svg
        xmlns:inkscape="http://www.inkscape.org/namespaces/inkscape"
        xmlns:sodipodi="http://sodipodi.sourceforge.net/DTD/sodipodi-0.dtd"
        xmlns:svg="http://www.w3.org/2000/svg"
        viewBox="0 0 24 24"
        version="1.1"
        id="svg340"
        sodipodi:docname="download.svg"
        inkscape:version="1.2.2 (b0a8486541, 2022-12-01)"
        xmlns="http://www.w3.org/2000/svg">
    <defs
            id="defs344"/>
    <sodipodi:namedview
            id="namedview342"
            pagecolor="#ffffff"
            bordercolor="#000000"
            borderopacity="0.25"
            inkscape:showpageshadow="2"
            inkscape:pageopacity="0.0"
            inkscape:pagecheckerboard="0"
            inkscape:deskcolor="#d1d1d1"
            showgrid="false"
            inkscape:zoom="34.333333"
            inkscape:cx="12.014563"
            inkscape:cy="12.014563"
            inkscape:window-width="1920"
            inkscape:window-height="1011"
            inkscape:window-x="0"
            inkscape:window-y="32"
            inkscape:window-maximized="1"
            inkscape:current-layer="svg340"/>
    <path
            d="M8.29,13.29a1,1,0,0,0,0,1.42l3,3a1,1,0,0,0,1.42,0l3-3a1,1,0,0,0-1.42-1.42L13,14.59V3a1,1,0,0,0-2,0V14.59l-1.29-1.3A1,1,0,0,0,8.29,13.29ZM18,9H16a1,1,0,0,0,0,2h2a1,1,0,0,1,1,1v7a1,1,0,0,1-1,1H6a1,1,0,0,1-1-1V12a1,1,0,0,1,1-1H8A1,1,0,0,0,8,9H6a3,3,0,0,0-3,3v7a3,3,0,0,0,3,3H18a3,3,0,0,0,3-3V12A3,3,0,0,0,18,9Z"
            id="path338"
            style="fill:#000000"/>
</svg>
