<?xml version="1.0" encoding="UTF-8" standalone="no"?>
<svg
        xmlns:inkscape="http://www.inkscape.org/namespaces/inkscape"
        xmlns:sodipodi="http://sodipodi.sourceforge.net/DTD/sodipodi-0.dtd"
        xmlns:svg="http://www.w3.org/2000/svg"
        viewBox="0 0 24 24"
        version="1.1"
        id="svg18872"
        sodipodi:docname="pending.svg"
        inkscape:version="1.2.2 (b0a8486541, 2022-12-01)"
        xmlns="http://www.w3.org/2000/svg">
    <defs
            id="defs18876"/>
    <sodipodi:namedview
            id="namedview18874"
            pagecolor="#ffffff"
            bordercolor="#000000"
            borderopacity="0.25"
            inkscape:showpageshadow="2"
            inkscape:pageopacity="0.0"
            inkscape:pagecheckerboard="0"
            inkscape:deskcolor="#d1d1d1"
            showgrid="false"
            inkscape:zoom="34.333333"
            inkscape:cx="12.014563"
            inkscape:cy="12.014563"
            inkscape:window-width="1920"
            inkscape:window-height="1011"
            inkscape:window-x="0"
            inkscape:window-y="32"
            inkscape:window-maximized="1"
            inkscape:current-layer="svg18872"/>
    <g
            data-name="5"
            id="g18870"
            style="fill:#ffffff">
        <path
                d="M12,2A10,10,0,1,0,22,12,10,10,0,0,0,12,2Zm0,18a8,8,0,1,1,8-8A8,8,0,0,1,12,20Z"
                id="path18866"
                style="fill:#ffffff"/>
        <path
                d="M12,6a1,1,0,0,0-1,1v4.59L8.29,14.29a1,1,0,1,0,1.41,1.41l3-3A1,1,0,0,0,13,12V7A1,1,0,0,0,12,6Z"
                id="path18868"
                style="fill:#ffffff"/>
    </g>
</svg>
