<?xml version="1.0" encoding="UTF-8" standalone="no"?>
<svg
        xmlns:inkscape="http://www.inkscape.org/namespaces/inkscape"
        xmlns:sodipodi="http://sodipodi.sourceforge.net/DTD/sodipodi-0.dtd"
        xmlns:svg="http://www.w3.org/2000/svg"
        viewBox="0 0 24 24"
        version="1.1"
        id="svg84"
        sodipodi:docname="people.svg"
        inkscape:version="1.2.2 (b0a8486541, 2022-12-01)"
        xmlns="http://www.w3.org/2000/svg">
    <defs
            id="defs88"/>
    <sodipodi:namedview
            id="namedview86"
            pagecolor="#ffffff"
            bordercolor="#000000"
            borderopacity="0.25"
            inkscape:showpageshadow="2"
            inkscape:pageopacity="0.0"
            inkscape:pagecheckerboard="0"
            inkscape:deskcolor="#d1d1d1"
            showgrid="false"
            inkscape:zoom="34.333333"
            inkscape:cx="12.014563"
            inkscape:cy="12.014563"
            inkscape:window-width="1920"
            inkscape:window-height="1011"
            inkscape:window-x="0"
            inkscape:window-y="32"
            inkscape:window-maximized="1"
            inkscape:current-layer="g82"/>
    <g
            data-name="Layer 2"
            id="g82">
        <rect
                width="24"
                height="24"
                opacity="0"
                id="rect76"
                x="0"
                y="0"/>
        <path
                d="M 9,11 A 4,4 0 1 0 5,7 4,4 0 0 0 9,11 Z M 9,5 A 2,2 0 1 1 7,7 2,2 0 0 1 9,5 Z m 8,8 a 3,3 0 1 0 -3,-3 3,3 0 0 0 3,3 z m 0,-4 a 1,1 0 1 1 -1,1 1,1 0 0 1 1,-1 z m 0,5 A 5,5 0 0 0 13.94,15.05 7,7 0 0 0 2,20 a 1,1 0 0 0 2,0 5,5 0 0 1 10,0 1,1 0 0 0 2,0 6.9,6.9 0 0 0 -0.86,-3.35 3,3 0 0 1 4.86,2.35 1,1 0 0 0 2,0 5,5 0 0 0 -5,-5 z"
                id="path78"
                style="fill:#ffffff"/>
    </g>
</svg>
